<svg width="23" height="23" viewBox="0 0 23 23" fill="none" xmlns="http://www.w3.org/2000/svg">
<path d="M14.375 11.5H12.9375V12.9375H14.375V11.5Z" fill="#111F24"/>
<path d="M1.4375 11.5H0V14.375H1.4375V11.5Z" fill="#111F24"/>
<path d="M20.125 11.5H18.6875V12.9375H20.125V11.5Z" fill="#111F24"/>
<path d="M21.5625 4.3125V2.875H20.125V1.4375H18.6875V0H7.1875V1.4375H5.75V2.875H4.3125V4.3125H2.875V10.0625H1.4375V11.5H4.3125V12.9375H5.75V14.375H7.1875V7.1875H8.625V4.3125H10.0625V2.875H12.9375V4.3125H17.25V2.875H18.6875V4.3125H20.125V5.75H21.5625V8.625H17.25V10.0625H21.5625V20.125H23V4.3125H21.5625Z" fill="#111F24"/>
<path d="M4.3125 12.9375H2.875V14.375H4.3125V12.9375Z" fill="#111F24"/>
<path d="M2.875 14.375H1.4375V15.8125H2.875V14.375Z" fill="#111F24"/>
<path d="M2.875 15.8125V17.25H5.75V15.8125H2.875Z" fill="#111F24"/>
<path d="M11.5 15.8125H10.0625V17.25H11.5V15.8125Z" fill="#111F24"/>
<path d="M7.1875 17.25H5.75V20.125H7.1875V17.25Z" fill="#111F24"/>
<path d="M11.5 17.25V18.6875H20.125V17.25H11.5Z" fill="#111F24"/>
<path d="M8.625 20.125H7.1875V21.5625H8.625V20.125Z" fill="#111F24"/>
<path d="M21.5625 20.125H20.125V21.5625H21.5625V20.125Z" fill="#111F24"/>
<path d="M8.625 21.5625V23H20.125V21.5625H8.625Z" fill="#111F24"/>
<path d="M15.8125 10.0625V8.625H11.5V10.0625H15.8125Z" fill="#111F24"/>
</svg>
