<svg width="78" height="48" viewBox="0 0 78 48" fill="none" xmlns="http://www.w3.org/2000/svg">
<path d="M4.5 20H6.5V34H4.5V32H2.5V22H4.5V20Z" fill="#D8D8D8"/>
<path d="M38.5 14H36.5V12H26.5V6H22.5V12H12.5V14H10.5V16H8.5V36H10.5V38H12.5V40H36.5V38H38.5V36H40.5V16H38.5V14ZM34.5 26H28.5V20H34.5V26ZM26.5 34H22.5V32H26.5V34ZM14.5 32H20.5V34H14.5V32ZM14.5 20H20.5V26H14.5V20ZM28.5 34V32H34.5V34H28.5Z" fill="#D8D8D8"/>
<path d="M46.5 22V32H44.5V34H42.5V20H44.5V22H46.5Z" fill="#D8D8D8"/>
<path d="M75.5 10V9H74.5V5H73.5V4H72.5V3H68.5V2H67.5V1H63.5V2H62.5V3H58.5V4H57.5V5H56.5V9H55.5V10H54.5V14H55.5V15H56.5V19H57.5V20H58.5V21H62.5V22H63.5V23H67.5V22H68.5V21H72.5V20H73.5V19H74.5V15H75.5V14H76.5V10H75.5ZM60.5 11H61.5V10H62.5V11H63.5V12H65.5V11H66.5V10H67.5V9H68.5V8H69.5V9H70.5V11H69.5V12H68.5V13H67.5V14H66.5V15H65.5V16H63.5V15H62.5V14H61.5V13H60.5V11Z" fill="#C7F121"/>
</svg>
