<svg width="64" height="64" viewBox="0 0 64 64" fill="none" xmlns="http://www.w3.org/2000/svg">
<path d="M47.999 58.667H15.999V53.333H47.999V58.667ZM15.999 53.333H10.666V48H15.999V53.333ZM53.332 53.333H47.999V48H53.332V53.333ZM10.666 48H5.33203V16H10.666V48ZM42.666 48H21.332V42.667H42.666V48ZM58.666 48H53.332V21.333H58.666V48ZM21.332 42.667H15.999V21.333H21.332V42.667ZM47.999 42.667H42.666V32H47.999V42.667ZM37.332 37.333H26.666V26.667H37.332V37.333ZM42.666 26.667H37.332V21.333H42.666V26.667ZM31.999 21.333H21.332V16H31.999V21.333ZM47.999 21.333H42.666V16H47.999V21.333ZM15.999 16H10.666V10.667H15.999V16ZM53.332 10.667H58.666V16H47.999V5.33301H53.332V10.667ZM42.666 10.667H15.999V5.33301H42.666V10.667Z" fill="#D8D8D8"/>
</svg>
