<svg width="32" height="32" viewBox="0 0 32 32" fill="none" xmlns="http://www.w3.org/2000/svg">
<path d="M25.3333 17.3333V13.3333H24V12H22.6667V8.00001H21.3333V5.33334H20V4.00001H18.6667V2.66668H17.3333V1.33334H14.6667V2.66668H16V5.33334H14.6667V8.00001H13.3333V9.33334H12V10.6667H10.6667V12H9.33333V13.3333H8V17.3333H9.33333V20H8V18.6667H6.66667V16H5.33333V18.6667H4V22.6667H5.33333V25.3333H6.66667V26.6667H8V28H9.33333V29.3333H10.6667V30.6667H21.3333V29.3333H22.6667V28H24V26.6667H25.3333V24H26.6667V17.3333H25.3333ZM22.6667 26.6667H21.3333V28H18.6667V29.3333H13.3333V28H12V22.6667H13.3333V21.3333H14.6667V20H16V18.6667H17.3333V14.6667H16V13.3333H14.6667V12H16V13.3333H18.6667V16H20V22.6667H18.6667V25.3333H20V24H21.3333V22.6667H22.6667V26.6667Z" fill="#D8D8D8"/>
</svg>
