<svg width="48" height="48" viewBox="0 0 48 48" fill="none" xmlns="http://www.w3.org/2000/svg">
<path d="M4 26V24H2V20H4V18H14V24H16V26H4Z" fill="#D8D8D8"/>
<path d="M10 14H8V10H10V8H14V10H16V12H14V16H10V14Z" fill="#D8D8D8"/>
<path d="M16 14H18V12H20V10H28V12H30V14H32V22H30V24H28V26H20V24H18V22H16V14Z" fill="#D8D8D8"/>
<path d="M38 36H40V42H38V44H10V42H8V36H10V34H12V32H16V30H32V32H36V34H38V36Z" fill="#D8D8D8"/>
<path d="M46 20V24H44V26H32V24H34V18H44V20H46Z" fill="#D8D8D8"/>
<path d="M34 12H32V10H34V8H38V10H40V14H38V16H34V12Z" fill="#D8D8D8"/>
</svg>
