<svg width="32" height="32" viewBox="0 0 32 32" fill="none" xmlns="http://www.w3.org/2000/svg">
<path d="M30.6673 8V14.6667H29.334V16H28.0007V17.3333H26.6673V18.6667H25.334V20H24.0007V21.3333H22.6673V22.6667H21.334V24H20.0007V25.3333H18.6673V26.6667H17.334V28H14.6673V26.6667H13.334V25.3333H12.0007V24H10.6673V22.6667H9.33398V21.3333H8.00065V20H6.66732V18.6667H5.33398V17.3333H4.00065V16H2.66732V14.6667H1.33398V8H2.66732V6.66667H4.00065V5.33333H5.33398V4H13.334V5.33333H14.6673V6.66667H17.334V5.33333H18.6673V4H26.6673V5.33333H28.0007V6.66667H29.334V8H30.6673Z" fill="#D8D8D8"/>
</svg>
