<svg width="32" height="32" viewBox="0 0 32 32" fill="none" xmlns="http://www.w3.org/2000/svg">
<path d="M30.6667 8V14.6667H29.3333V16H28V17.3333H26.6667V18.6667H25.3333V20H24V21.3333H22.6667V22.6667H21.3333V24H20V25.3333H18.6667V26.6667H17.3333V28H14.6667V26.6667H13.3333V25.3333H12V24H10.6667V22.6667H9.33334V21.3333H8.00001V20H6.66668V18.6667H5.33334V17.3333H4.00001V16H2.66668V14.6667H1.33334V8H2.66668V6.66667H4.00001V5.33333H5.33334V4H13.3333V5.33333H14.6667V6.66667H17.3333V5.33333H18.6667V4H26.6667V5.33333H28V6.66667H29.3333V8H30.6667Z" fill="#D8D8D8"/>
</svg>
