<svg width="48" height="48" viewBox="0 0 48 48" fill="none" xmlns="http://www.w3.org/2000/svg">
<g clip-path="url(#clip0_610_7607)">
<path d="M46 40V44H44V46H4V44H2V30H4V32H6V34H8V36H10V38H12V40H14V42H16V40H18V38H20V36H22V34H24V32H26V30H28V28H30V26H32V28H34V30H36V32H38V34H40V36H42V38H44V40H46Z" fill="#D8D8D8"/>
<path d="M44 4V2H4V4H2V24H4V26H6V28H8V30H10V32H12V34H14V36H16V34H18V32H20V30H22V28H24V26H26V24H28V22H30V20H32V22H34V24H36V26H38V28H40V30H42V32H44V34H46V4H44ZM18 12V18H16V20H10V18H8V12H10V10H16V12H18Z" fill="#D8D8D8"/>
</g>
<defs>
<clipPath id="clip0_610_7607">
<rect width="48" height="48" fill="white"/>
</clipPath>
</defs>
</svg>
