<svg width="32" height="32" viewBox="0 0 32 32" fill="none" xmlns="http://www.w3.org/2000/svg">
<g clip-path="url(#clip0_159_2942)">
<path d="M29.3333 11.9997V9.33301H28V6.66634H26.6667V5.33301H25.3333V3.99967H22.6667V2.66634H20V1.33301H12V2.66634H9.33334V3.99967H6.66668V5.33301H5.33334V6.66634H4.00001V9.33301H2.66668V11.9997H1.33334V19.9997H2.66668V22.6663H4.00001V25.333H5.33334V26.6663H6.66668V27.9997H9.33334V29.333H12V30.6663H20V29.333H22.6667V27.9997H25.3333V26.6663H26.6667V25.333H28V22.6663H29.3333V19.9997H30.6667V11.9997H29.3333ZM14.6667 7.99967H17.3333V10.6663H14.6667V7.99967ZM13.3333 19.9997H14.6667V13.333H13.3333V11.9997H17.3333V19.9997H18.6667V22.6663H13.3333V19.9997Z" fill="#414F54"/>
</g>
<defs>
<clipPath id="clip0_159_2942">
<rect width="32" height="32" fill="white"/>
</clipPath>
</defs>
</svg>
