<svg width="158" height="33" viewBox="0 0 158 33" fill="none" xmlns="http://www.w3.org/2000/svg">
<path d="M1.92976 15.4003H0V19.2504H1.92976V15.4003Z" fill="#111F24"/>
<path d="M17.3678 9.6252H15.4381V11.5502H17.3678V9.6252Z" fill="#111F24"/>
<path d="M17.3678 7.70016V9.6252H21.2274V7.70016H17.3678Z" fill="#111F24"/>
<path d="M23.1571 7.70016V9.6252H27.0166V7.70016H23.1571Z" fill="#111F24"/>
<path d="M28.9464 5.77512V3.85008H27.0166V1.92504H25.0869V0H9.6488V1.92504H7.71904V3.85008H5.78928V5.77512H3.85952V13.4753H1.92976V15.4003H5.78928V17.3254H7.71904V19.2504H9.6488V15.4003H13.5083V17.3254H15.4381V15.4003H17.3678V17.3254H15.4381V19.2504H19.2976V17.3254H21.2274V15.4003H23.1571V17.3254H25.0869V15.4003H27.0166V17.3254H25.0869V19.2504H28.9464V26.9506H30.8762V5.77512H28.9464ZM28.9464 9.6252H27.0166V11.5502H28.9464V13.4753H9.6488V7.70016H11.5786V5.77512H13.5083V3.85008H17.3678V5.77512H23.1571V3.85008H25.0869V5.77512H27.0166V7.70016H28.9464V9.6252Z" fill="#111F24"/>
<path d="M5.78928 17.3254H3.85952V19.2504H5.78928V17.3254Z" fill="#111F24"/>
<path d="M3.85952 19.2504H1.92976V21.1754H3.85952V19.2504Z" fill="#111F24"/>
<path d="M3.85952 21.1754V23.1005H7.71904V21.1754H3.85952Z" fill="#111F24"/>
<path d="M25.0869 21.1754H17.3678V23.1005H15.4381V25.0255H27.0166V23.1005H25.0869V21.1754Z" fill="#111F24"/>
<path d="M15.4381 21.1754H13.5083V23.1005H15.4381V21.1754Z" fill="#111F24"/>
<path d="M9.6488 23.1005H7.71904V26.9506H9.6488V23.1005Z" fill="#111F24"/>
<path d="M11.5786 26.9506H9.6488V28.8756H11.5786V26.9506Z" fill="#111F24"/>
<path d="M28.9464 26.9506H27.0166V28.8756H28.9464V26.9506Z" fill="#111F24"/>
<path d="M11.5786 28.8756V30.8006H27.0166V28.8756H11.5786Z" fill="#111F24"/>
<path d="M41.533 27.0167V5.74282H49.9468C51.5643 5.74282 52.9423 6.05099 54.0808 6.66732C55.2193 7.27673 56.0871 8.12506 56.6841 9.21229C57.2881 10.2926 57.59 11.5391 57.59 12.9518C57.59 14.3646 57.2846 15.6111 56.6737 16.6914C56.0628 17.7717 55.1777 18.6131 54.0183 19.2156C52.866 19.8181 51.4706 20.1193 49.8323 20.1193H44.4695V16.5148H49.1034C49.9711 16.5148 50.6861 16.3659 51.2485 16.0681C51.8177 15.7634 52.2412 15.3445 52.5189 14.8112C52.8035 14.2711 52.9458 13.6513 52.9458 12.9518C52.9458 12.2455 52.8035 11.6292 52.5189 11.1028C52.2412 10.5696 51.8177 10.1576 51.2485 9.86672C50.6792 9.56894 49.9572 9.42005 49.0825 9.42005H46.0419V27.0167H41.533Z" fill="#111F24"/>
<path d="M63.1007 27.318C62.0802 27.318 61.1708 27.1414 60.3724 26.7882C59.5741 26.4281 58.9424 25.8983 58.4772 25.1989C58.0191 24.4925 57.79 23.613 57.79 22.5604C57.79 21.674 57.9531 20.9296 58.2794 20.3271C58.6057 19.7246 59.05 19.2398 59.6123 18.8728C60.1746 18.5058 60.8132 18.2288 61.5283 18.0418C62.2503 17.8548 63.0069 17.7232 63.7983 17.6471C64.7286 17.5501 65.4783 17.4601 66.0476 17.377C66.6168 17.287 67.0299 17.1554 67.2867 16.9823C67.5436 16.8091 67.672 16.5529 67.672 16.2136V16.1512C67.672 15.4934 67.4638 14.9844 67.0472 14.6243C66.6376 14.2642 66.0545 14.0841 65.2978 14.0841C64.4995 14.0841 63.8643 14.2607 63.3922 14.6139C62.9202 14.9601 62.6078 15.3964 62.455 15.9227L58.3523 15.5903C58.5605 14.6208 58.9701 13.7829 59.581 13.0765C60.1919 12.3632 60.9798 11.8161 61.9448 11.4353C62.9167 11.0474 64.0413 10.8535 65.3186 10.8535C66.2072 10.8535 67.0576 10.9574 67.8699 11.1652C68.689 11.3729 69.4145 11.6949 70.0462 12.1312C70.6849 12.5675 71.1882 13.1284 71.5561 13.814C71.924 14.4927 72.108 15.3064 72.108 16.2551V27.0167H67.9011V24.8041H67.7761C67.5193 25.3028 67.1757 25.7425 66.7452 26.1234C66.3148 26.4973 65.7976 26.7916 65.1937 27.0063C64.5897 27.2141 63.8921 27.318 63.1007 27.318ZM64.3711 24.264C65.0236 24.264 65.5998 24.1359 66.0996 23.8796C66.5995 23.6165 66.9917 23.2633 67.2763 22.8201C67.5609 22.3769 67.7033 21.8748 67.7033 21.3139V19.6207C67.5644 19.7107 67.3735 19.7938 67.1305 19.87C66.8945 19.9393 66.6272 20.0051 66.3287 20.0674C66.0302 20.1228 65.7317 20.1747 65.4332 20.2232C65.1347 20.2647 64.8639 20.3028 64.621 20.3375C64.1003 20.4136 63.6456 20.5348 63.2568 20.701C62.8681 20.8672 62.5661 21.0923 62.3509 21.3762C62.1357 21.6532 62.0281 21.9995 62.0281 22.415C62.0281 23.0175 62.2468 23.478 62.6841 23.7965C63.1284 24.1082 63.6907 24.264 64.3711 24.264Z" fill="#111F24"/>
<path d="M74.0834 33V11.0613H78.4569V13.7413H78.6547C78.8491 13.312 79.1303 12.8757 79.4982 12.4325C79.8731 11.9823 80.359 11.6084 80.956 11.3106C81.56 11.0059 82.3097 10.8535 83.2052 10.8535C84.3715 10.8535 85.4475 11.1582 86.4333 11.7677C87.4191 12.3701 88.207 13.2808 88.7971 14.4996C89.3872 15.7115 89.6822 17.2316 89.6822 19.0598C89.6822 20.8395 89.3941 22.3423 88.8179 23.568C88.2487 24.7868 87.4712 25.7113 86.4854 26.3415C85.5065 26.9648 84.4097 27.2764 83.1948 27.2764C82.334 27.2764 81.6016 27.1344 80.9977 26.8505C80.4007 26.5666 79.9112 26.2099 79.5294 25.7806C79.1476 25.3443 78.856 24.9046 78.6547 24.4614H78.5193V33H74.0834ZM78.4256 19.039C78.4256 19.9877 78.5575 20.8153 78.8213 21.5217C79.0851 22.228 79.4669 22.7786 79.9668 23.1733C80.4666 23.5611 81.074 23.755 81.7891 23.755C82.511 23.755 83.1219 23.5576 83.6218 23.1629C84.1216 22.7612 84.4999 22.2072 84.7568 21.5009C85.0206 20.7876 85.1525 19.967 85.1525 19.039C85.1525 18.118 85.0241 17.3077 84.7672 16.6083C84.5104 15.9089 84.132 15.3618 83.6322 14.967C83.1324 14.5723 82.518 14.375 81.7891 14.375C81.0671 14.375 80.4562 14.5654 79.9564 14.9463C79.4635 15.3272 79.0851 15.8673 78.8213 16.5667C78.5575 17.2662 78.4256 18.0903 78.4256 19.039Z" fill="#111F24"/>
<path d="M95.7343 27.318C94.7138 27.318 93.8044 27.1414 93.0061 26.7882C92.2077 26.4281 91.576 25.8983 91.1109 25.1989C90.6527 24.4925 90.4236 23.613 90.4236 22.5604C90.4236 21.674 90.5868 20.9296 90.913 20.3271C91.2393 19.7246 91.6836 19.2398 92.2459 18.8728C92.8082 18.5058 93.4469 18.2288 94.1619 18.0418C94.8839 17.8548 95.6406 17.7232 96.432 17.6471C97.3622 17.5501 98.112 17.4601 98.6812 17.377C99.2505 17.287 99.6635 17.1554 99.9204 16.9823C100.177 16.8091 100.306 16.5529 100.306 16.2136V16.1512C100.306 15.4934 100.097 14.9844 99.6809 14.6243C99.2713 14.2642 98.6882 14.0841 97.9315 14.0841C97.1331 14.0841 96.4979 14.2607 96.0259 14.6139C95.5538 14.9601 95.2414 15.3964 95.0887 15.9227L90.9859 15.5903C91.1942 14.6208 91.6038 13.7829 92.2147 13.0765C92.8256 12.3632 93.6135 11.8161 94.5785 11.4353C95.5503 11.0474 96.675 10.8535 97.9523 10.8535C98.8409 10.8535 99.6913 10.9574 100.504 11.1652C101.323 11.3729 102.048 11.6949 102.68 12.1312C103.319 12.5675 103.822 13.1284 104.19 13.814C104.558 14.4927 104.742 15.3064 104.742 16.2551V27.0167H100.535V24.8041H100.41C100.153 25.3028 99.8093 25.7425 99.3789 26.1234C98.9485 26.4973 98.4313 26.7916 97.8273 27.0063C97.2234 27.2141 96.5257 27.318 95.7343 27.318ZM97.0047 24.264C97.6573 24.264 98.2335 24.1359 98.7333 23.8796C99.2331 23.6165 99.6253 23.2633 99.91 22.8201C100.195 22.3769 100.337 21.8748 100.337 21.3139V19.6207C100.198 19.7107 100.007 19.7938 99.7642 19.87C99.5281 19.9393 99.2609 20.0051 98.9624 20.0674C98.6639 20.1228 98.3654 20.1747 98.0668 20.2232C97.7683 20.2647 97.4976 20.3028 97.2546 20.3375C96.734 20.4136 96.2793 20.5348 95.8905 20.701C95.5017 20.8672 95.1998 21.0923 94.9846 21.3762C94.7694 21.6532 94.6618 21.9995 94.6618 22.415C94.6618 23.0175 94.8804 23.478 95.3178 23.7965C95.7621 24.1082 96.3244 24.264 97.0047 24.264Z" fill="#111F24"/>
<path d="M106.8 27.0167V5.74282H115.339C116.908 5.74282 118.217 5.97481 119.265 6.4388C120.313 6.90278 121.101 7.54681 121.629 8.3709C122.156 9.18806 122.42 10.1299 122.42 11.1963C122.42 12.0273 122.253 12.7579 121.92 13.3881C121.587 14.0114 121.129 14.5238 120.546 14.9255C119.969 15.3202 119.31 15.6007 118.567 15.7669V15.9747C119.379 16.0093 120.14 16.2378 120.848 16.6602C121.563 17.0827 122.142 17.6748 122.587 18.4365C123.031 19.1914 123.253 20.0916 123.253 21.1373C123.253 22.2661 122.972 23.2737 122.41 24.1601C121.854 25.0396 121.032 25.7356 119.942 26.248C118.852 26.7605 117.508 27.0167 115.912 27.0167H106.8ZM111.309 23.3395H114.985C116.242 23.3395 117.158 23.1006 117.734 22.6227C118.31 22.138 118.598 21.494 118.598 20.6906C118.598 20.102 118.456 19.5826 118.171 19.1325C117.887 18.6824 117.481 18.3292 116.953 18.073C116.432 17.8167 115.811 17.6886 115.089 17.6886H111.309V23.3395ZM111.309 14.645H114.652C115.27 14.645 115.818 14.5377 116.297 14.323C116.783 14.1014 117.165 13.7898 117.443 13.3881C117.727 12.9865 117.869 12.5052 117.869 11.9442C117.869 11.1756 117.595 10.5558 117.047 10.0849C116.505 9.61395 115.735 9.3785 114.735 9.3785H111.309V14.645Z" fill="#111F24"/>
<path d="M131.927 27.3283C130.281 27.3283 128.865 26.9959 127.678 26.3311C126.498 25.6594 125.589 24.7107 124.95 23.4849C124.311 22.2523 123.992 20.7945 123.992 19.1117C123.992 17.4705 124.311 16.0301 124.95 14.7905C125.589 13.5509 126.488 12.5848 127.647 11.8923C128.813 11.1998 130.181 10.8535 131.75 10.8535C132.805 10.8535 133.787 11.0232 134.697 11.3625C135.613 11.6949 136.411 12.197 137.092 12.8687C137.779 13.5405 138.313 14.3853 138.695 15.4033C139.077 16.4144 139.268 17.5986 139.268 18.9559V20.1713H125.762V17.4289H135.092C135.092 16.7918 134.953 16.2274 134.676 15.7357C134.398 15.2441 134.013 14.8597 133.52 14.5827C133.034 14.2988 132.468 14.1568 131.823 14.1568C131.149 14.1568 130.552 14.3126 130.031 14.6243C129.518 14.929 129.115 15.341 128.824 15.8604C128.532 16.3728 128.383 16.9442 128.376 17.5743V20.1816C128.376 20.9711 128.522 21.6532 128.813 22.228C129.112 22.8028 129.532 23.246 130.073 23.5576C130.615 23.8693 131.257 24.0251 132 24.0251C132.492 24.0251 132.944 23.9558 133.353 23.8173C133.763 23.6788 134.113 23.4711 134.405 23.1941C134.697 22.9171 134.919 22.5777 135.071 22.1761L139.174 22.4462C138.966 23.4295 138.539 24.2882 137.893 25.0223C137.255 25.7494 136.429 26.3173 135.415 26.7259C134.408 27.1275 133.246 27.3283 131.927 27.3283Z" fill="#111F24"/>
<path d="M149.204 11.0613V14.3853H139.572V11.0613H149.204ZM141.759 7.23864H146.195V22.1137C146.195 22.5223 146.257 22.8409 146.382 23.0694C146.507 23.291 146.681 23.4468 146.903 23.5369C147.132 23.6269 147.396 23.6719 147.694 23.6719C147.902 23.6719 148.111 23.6546 148.319 23.62C148.527 23.5784 148.687 23.5472 148.798 23.5265L149.496 26.8194C149.273 26.8886 148.961 26.9682 148.558 27.0583C148.156 27.1552 147.666 27.2141 147.09 27.2349C146.021 27.2764 145.084 27.1344 144.279 26.809C143.48 26.4835 142.859 25.978 142.415 25.2924C141.97 24.6068 141.752 23.7411 141.759 22.6955V7.23864Z" fill="#111F24"/>
<path d="M156.331 10.2045H152.993V9.37202H156.331V10.2045ZM152.993 11.0369H152.159V10.2045H152.993V11.0369ZM156.331 11.0369V10.2045H157.166V11.0369H156.331ZM152.159 11.0369V14.3667H151.324V11.0369H152.159ZM152.993 14.3667V11.0369H155.497V11.8694H153.828V12.7018H155.497V13.5343H153.828V14.3667H152.993ZM158 11.0369V14.3667H157.166V11.0369H158ZM155.497 12.7018V11.8694H156.331V12.7018H155.497ZM155.497 14.3667V13.5343H156.331V14.3667H155.497ZM152.993 14.3667V15.1992H152.159V14.3667H152.993ZM156.331 14.3667H157.166V15.1992H156.331V14.3667ZM152.993 15.1992H156.331V16.0316H152.993V15.1992Z" fill="#111F24"/>
</svg>
