<svg width="237" height="50" viewBox="0 0 237 50" fill="none" xmlns="http://www.w3.org/2000/svg">
<path d="M11.5789 5.7894H8.68415V8.68408H11.5789V5.7894Z" fill="#D8D8D8"/>
<path d="M5.78943 20.2628H8.68415V8.68408H5.78943V20.2628Z" fill="#D8D8D8"/>
<path d="M14.4736 2.89471H11.5789V5.7894H14.4736V2.89471Z" fill="#D8D8D8"/>
<path d="M26.0524 23.1575H23.1577V26.0522H26.0524V23.1575Z" fill="#D8D8D8"/>
<path d="M40.526 2.89471H37.6313V5.7894H40.526V2.89471Z" fill="#D8D8D8"/>
<path d="M40.526 23.1575H37.6313V26.0522H40.526V23.1575Z" fill="#D8D8D8"/>
<path d="M2.89472 23.1575H0V28.9469H2.89472V31.8416H5.78943V34.7362H11.5789V40.5256H14.4736V43.4203H17.3683V46.315H40.526V43.4203H43.4207V40.5256H46.3155V26.0522H43.4207V28.9469H37.6313V26.0522H34.7366V23.1575H31.8419V26.0522H28.9472V28.9469H23.1577V26.0522H20.263V23.1575H14.4736V28.9469H11.5789V26.0522H8.68415V28.9469H5.78943V26.0522H8.68415V23.1575H5.78943V20.2628H2.89472V23.1575ZM20.263 31.8416H23.1577V34.7362H26.0524V31.8416H37.6313V34.7362H40.526V37.6309H23.1577V34.7362H20.263V31.8416Z" fill="#D8D8D8"/>
<path d="M14.4736 2.47955e-05V2.89471H37.6313V2.47955e-05H14.4736Z" fill="#D8D8D8"/>
<path d="M43.4207 8.68408V11.5788H40.526V14.4735H43.4207V17.3681H40.526V14.4735H34.7366V11.5788H40.526V8.68408H37.6313V5.7894H34.7366V8.68408H26.0524V5.7894H20.263V8.68408H17.3683V11.5788H14.4736V20.2628H46.3155V8.68408H43.4207ZM31.8419 14.4735H26.0524V17.3681H23.1577V14.4735H26.0524V11.5788H31.8419V14.4735Z" fill="#D8D8D8"/>
<path d="M43.4207 5.7894H40.526V8.68408H43.4207V5.7894Z" fill="#D8D8D8"/>
<path d="M62.2998 40.6246V8.63591H74.9205C77.3467 8.63591 79.4137 9.09929 81.1215 10.026C82.8292 10.9424 84.1308 12.218 85.0264 13.8528C85.9323 15.4772 86.3853 17.3516 86.3853 19.4758C86.3853 21.6001 85.9271 23.4744 85.0107 25.0988C84.0944 26.7232 82.7667 27.9884 81.0277 28.8943C79.2992 29.8003 77.2061 30.2532 74.7486 30.2532H66.7045V24.8333H73.6553C74.9569 24.8333 76.0295 24.6094 76.8729 24.1616C77.7268 23.7035 78.362 23.0735 78.7785 22.2717C79.2054 21.4595 79.4189 20.5275 79.4189 19.4758C79.4189 18.4137 79.2054 17.4869 78.7785 16.6955C78.362 15.8937 77.7268 15.2742 76.8729 14.8368C76.019 14.3891 74.9361 14.1652 73.624 14.1652H69.0631V40.6246H62.2998Z" fill="#D8D8D8"/>
<path d="M94.6512 41.0775C93.1204 41.0775 91.7563 40.812 90.5588 40.2809C89.3613 39.7394 88.4137 38.9429 87.7161 37.8911C87.0288 36.829 86.6852 35.5066 86.6852 33.9238C86.6852 32.5909 86.9299 31.4716 87.4193 30.5656C87.9087 29.6597 88.5751 28.9308 89.4186 28.3789C90.2621 27.827 91.2201 27.4105 92.2926 27.1293C93.3756 26.8482 94.5106 26.6503 95.6977 26.5358C97.093 26.39 98.2176 26.2547 99.0715 26.1297C99.9254 25.9943 100.545 25.7965 100.93 25.5362C101.316 25.2758 101.508 24.8906 101.508 24.3803V24.2866C101.508 23.2974 101.196 22.532 100.571 21.9905C99.9566 21.4491 99.0819 21.1783 97.9469 21.1783C96.7494 21.1783 95.7966 21.4439 95.0885 21.9749C94.3804 22.4956 93.9118 23.1516 93.6828 23.943L87.5286 23.4432C87.841 21.9853 88.4554 20.7254 89.3717 19.6632C90.2881 18.5907 91.47 17.7681 92.9174 17.1954C94.3752 16.6122 96.0621 16.3207 97.9781 16.3207C99.311 16.3207 100.587 16.4769 101.805 16.7893C103.034 17.1017 104.122 17.5859 105.069 18.2419C106.027 18.8979 106.782 19.7413 107.334 20.7722C107.886 21.7927 108.162 23.0162 108.162 24.4428V40.6246H101.852V37.2976H101.664C101.279 38.0473 100.764 38.7086 100.118 39.2813C99.4724 39.8436 98.6966 40.2861 97.7907 40.6089C96.8848 40.9213 95.8383 41.0775 94.6512 41.0775ZM96.5568 36.4854C97.5356 36.4854 98.3999 36.2928 99.1496 35.9075C99.8994 35.5118 100.488 34.9807 100.915 34.3143C101.342 33.6479 101.555 32.8929 101.555 32.0495V29.5035C101.347 29.6389 101.06 29.7638 100.696 29.8784C100.342 29.9825 99.941 30.0814 99.4933 30.1751C99.0455 30.2584 98.5977 30.3365 98.15 30.4094C97.7022 30.4719 97.2961 30.5292 96.9316 30.5812C96.1507 30.6958 95.4686 30.878 94.8855 31.1279C94.3023 31.3778 93.8494 31.7163 93.5266 32.1432C93.2037 32.5597 93.0423 33.0804 93.0423 33.7051C93.0423 34.6111 93.3704 35.3035 94.0264 35.7825C94.6928 36.2511 95.5363 36.4854 96.5568 36.4854Z" fill="#D8D8D8"/>
<path d="M111.125 49.6214V16.6331H117.685V20.6629H117.982C118.274 20.0173 118.695 19.3613 119.247 18.6948C119.81 18.018 120.539 17.4557 121.434 17.0079C122.34 16.5498 123.465 16.3207 124.808 16.3207C126.557 16.3207 128.171 16.7789 129.65 17.6952C131.129 18.6011 132.311 19.9704 133.196 21.8031C134.081 23.6254 134.523 25.911 134.523 28.66C134.523 31.3362 134.091 33.5958 133.227 35.4389C132.373 37.2716 131.207 38.6617 129.728 39.6093C128.26 40.5465 126.615 41.015 124.792 41.015C123.501 41.015 122.403 40.8016 121.497 40.3746C120.601 39.9477 119.867 39.4114 119.294 38.7658C118.722 38.1098 118.284 37.4486 117.982 36.7822H117.779V49.6214H111.125ZM117.639 28.6288C117.639 30.0554 117.836 31.2997 118.232 32.3619C118.628 33.424 119.201 34.2518 119.95 34.8454C120.7 35.4285 121.611 35.72 122.684 35.72C123.767 35.72 124.683 35.4233 125.433 34.8297C126.182 34.2258 126.75 33.3927 127.135 32.3306C127.531 31.2581 127.729 30.0241 127.729 28.6288C127.729 27.2439 127.536 26.0256 127.151 24.9739C126.766 23.9221 126.198 23.0995 125.448 22.506C124.699 21.9124 123.777 21.6157 122.684 21.6157C121.601 21.6157 120.684 21.902 119.935 22.4747C119.195 23.0475 118.628 23.8597 118.232 24.9114C117.836 25.9631 117.639 27.2022 117.639 28.6288Z" fill="#D8D8D8"/>
<path d="M143.601 41.0775C142.071 41.0775 140.707 40.812 139.509 40.2809C138.312 39.7394 137.364 38.9429 136.666 37.8911C135.979 36.829 135.635 35.5066 135.635 33.9238C135.635 32.5909 135.88 31.4716 136.37 30.5656C136.859 29.6597 137.525 28.9308 138.369 28.3789C139.212 27.827 140.17 27.4105 141.243 27.1293C142.326 26.8482 143.461 26.6503 144.648 26.5358C146.043 26.39 147.168 26.2547 148.022 26.1297C148.876 25.9943 149.495 25.7965 149.881 25.5362C150.266 25.2758 150.459 24.8906 150.459 24.3803V24.2866C150.459 23.2974 150.146 22.532 149.521 21.9905C148.907 21.4491 148.032 21.1783 146.897 21.1783C145.7 21.1783 144.747 21.4439 144.039 21.9749C143.331 22.4956 142.862 23.1516 142.633 23.943L136.479 23.4432C136.791 21.9853 137.406 20.7254 138.322 19.6632C139.238 18.5907 140.42 17.7681 141.868 17.1954C143.326 16.6122 145.012 16.3207 146.928 16.3207C148.261 16.3207 149.537 16.4769 150.755 16.7893C151.984 17.1017 153.072 17.5859 154.02 18.2419C154.978 18.8979 155.733 19.7413 156.285 20.7722C156.837 21.7927 157.112 23.0162 157.112 24.4428V40.6246H150.802V37.2976H150.615C150.229 38.0473 149.714 38.7086 149.068 39.2813C148.423 39.8436 147.647 40.2861 146.741 40.6089C145.835 40.9213 144.789 41.0775 143.601 41.0775ZM145.507 36.4854C146.486 36.4854 147.35 36.2928 148.1 35.9075C148.85 35.5118 149.438 34.9807 149.865 34.3143C150.292 33.6479 150.505 32.8929 150.505 32.0495V29.5035C150.297 29.6389 150.011 29.7638 149.646 29.8784C149.292 29.9825 148.891 30.0814 148.444 30.1751C147.996 30.2584 147.548 30.3365 147.1 30.4094C146.653 30.4719 146.246 30.5292 145.882 30.5812C145.101 30.6958 144.419 30.878 143.836 31.1279C143.253 31.3778 142.8 31.7163 142.477 32.1432C142.154 32.5597 141.993 33.0804 141.993 33.7051C141.993 34.6111 142.321 35.3035 142.977 35.7825C143.643 36.2511 144.487 36.4854 145.507 36.4854Z" fill="#D8D8D8"/>
<path d="M160.2 40.6246V8.63591H173.009C175.362 8.63591 177.325 8.98474 178.897 9.68241C180.47 10.3801 181.651 11.3485 182.443 12.5876C183.234 13.8164 183.63 15.2325 183.63 16.8361C183.63 18.0857 183.38 19.1842 182.88 20.1318C182.38 21.069 181.693 21.8396 180.818 22.4435C179.954 23.037 178.965 23.4588 177.851 23.7087V24.0211C179.069 24.0731 180.209 24.4168 181.271 25.052C182.344 25.6871 183.213 26.5775 183.88 27.7229C184.546 28.8579 184.879 30.2116 184.879 31.7839C184.879 33.4813 184.458 34.9963 183.614 36.3292C182.781 37.6516 181.547 38.6981 179.912 39.4687C178.278 40.2393 176.263 40.6246 173.868 40.6246H160.2ZM166.964 35.0953H172.477C174.362 35.0953 175.737 34.736 176.601 34.0175C177.465 33.2886 177.898 32.3202 177.898 31.1123C177.898 30.2272 177.684 29.4462 177.257 28.7694C176.83 28.0925 176.221 27.5615 175.43 27.1762C174.649 26.7909 173.717 26.5983 172.634 26.5983H166.964V35.0953ZM166.964 22.0218H171.978C172.904 22.0218 173.727 21.8604 174.446 21.5376C175.174 21.2044 175.747 20.7358 176.164 20.1318C176.591 19.5279 176.804 18.8042 176.804 17.9607C176.804 16.8049 176.393 15.8729 175.57 15.1648C174.758 14.4568 173.602 14.1027 172.103 14.1027H166.964V22.0218Z" fill="#D8D8D8"/>
<path d="M197.89 41.0931C195.422 41.0931 193.298 40.5933 191.517 39.5937C189.747 38.5836 188.383 37.157 187.425 35.3139C186.467 33.4604 185.988 31.2685 185.988 28.7381C185.988 26.2703 186.467 24.1044 187.425 22.2405C188.383 20.3765 189.731 18.9239 191.47 17.8826C193.22 16.8413 195.271 16.3207 197.624 16.3207C199.207 16.3207 200.681 16.5758 202.045 17.086C203.419 17.5859 204.617 18.3408 205.637 19.3509C206.668 20.3609 207.47 21.6313 208.043 23.162C208.615 24.6823 208.902 26.4629 208.902 28.5039V30.3313H188.643V26.2078H202.638C202.638 25.2498 202.43 24.4011 202.013 23.6618C201.597 22.9225 201.019 22.3446 200.28 21.9281C199.551 21.5011 198.702 21.2877 197.734 21.2877C196.724 21.2877 195.828 21.522 195.047 21.9905C194.277 22.4487 193.673 23.0683 193.235 23.8493C192.798 24.6198 192.574 25.4789 192.564 26.4265V30.347C192.564 31.534 192.782 32.5597 193.22 33.424C193.667 34.2883 194.297 34.9547 195.11 35.4233C195.922 35.8919 196.885 36.1261 197.999 36.1261C198.739 36.1261 199.415 36.022 200.03 35.8138C200.644 35.6055 201.17 35.2931 201.607 34.8766C202.045 34.4601 202.378 33.9498 202.607 33.3459L208.761 33.752C208.449 35.2306 207.808 36.5218 206.84 37.6256C205.882 38.719 204.643 39.5728 203.122 40.1872C201.613 40.7912 199.868 41.0931 197.89 41.0931Z" fill="#D8D8D8"/>
<path d="M223.806 16.6331V21.6313H209.358V16.6331H223.806ZM212.638 10.8851H219.292V33.2522C219.292 33.8665 219.386 34.3455 219.573 34.6892C219.76 35.0224 220.021 35.2567 220.354 35.392C220.698 35.5274 221.093 35.5951 221.541 35.5951C221.853 35.5951 222.166 35.5691 222.478 35.517C222.791 35.4545 223.03 35.4077 223.197 35.3764L224.243 40.3278C223.91 40.4319 223.441 40.5517 222.837 40.687C222.234 40.8328 221.499 40.9213 220.635 40.9526C219.032 41.015 217.626 40.8016 216.418 40.3122C215.22 39.8228 214.288 39.0626 213.622 38.0317C212.955 37.0008 212.627 35.6992 212.638 34.1269V10.8851Z" fill="#D8D8D8"/>
<path d="M234.497 15.3456H229.49V14.0939H234.497V15.3456ZM229.49 16.5974H228.238V15.3456H229.49V16.5974ZM234.497 16.5974V15.3456H235.748V16.5974H234.497ZM228.238 16.5974V21.6042H226.986V16.5974H228.238ZM229.49 21.6042V16.5974H233.245V17.8491H230.742V19.1008H233.245V20.3525H230.742V21.6042H229.49ZM237 16.5974V21.6042H235.748V16.5974H237ZM233.245 19.1008V17.8491H234.497V19.1008H233.245ZM233.245 21.6042V20.3525H234.497V21.6042H233.245ZM229.49 21.6042V22.8559H228.238V21.6042H229.49ZM234.497 21.6042H235.748V22.8559H234.497V21.6042ZM229.49 22.8559H234.497V24.1077H229.49V22.8559Z" fill="#D8D8D8"/>
</svg>
