<svg width="1400" height="294" viewBox="0 0 1400 294" fill="none" xmlns="http://www.w3.org/2000/svg">
<path d="M17.0991 136.793H0V170.991H17.0991V136.793Z" fill="#111F24"/>
<path d="M153.892 85.4957H136.793V102.595H153.892V85.4957Z" fill="#111F24"/>
<path d="M153.892 68.3965V85.4957H188.09V68.3965H153.892Z" fill="#111F24"/>
<path d="M205.19 68.3965V85.4957H239.388V68.3965H205.19Z" fill="#111F24"/>
<path d="M256.487 51.2974V34.1983H239.388V17.0991H222.289V0H85.4957V17.0991H68.3965V34.1983H51.2974V51.2974H34.1983V119.694H17.0991V136.793H51.2974V153.892H68.3965V170.991H85.4957V136.793H119.694V153.892H136.793V136.793H153.892V153.892H136.793V170.991H170.991V153.892H188.09V136.793H205.19V153.892H222.289V136.793H239.388V153.892H222.289V170.991H256.487V239.388H273.586V51.2974H256.487ZM256.487 85.4957H239.388V102.595H256.487V119.694H85.4957V68.3965H102.595V51.2974H119.694V34.1983H153.892V51.2974H205.19V34.1983H222.289V51.2974H239.388V68.3965H256.487V85.4957Z" fill="#111F24"/>
<path d="M51.2974 153.892H34.1983V170.991H51.2974V153.892Z" fill="#111F24"/>
<path d="M34.1983 170.991H17.0991V188.09H34.1983V170.991Z" fill="#111F24"/>
<path d="M34.1983 188.09V205.19H68.3965V188.09H34.1983Z" fill="#111F24"/>
<path d="M222.289 188.09H153.892V205.19H136.793V222.289H239.388V205.19H222.289V188.09Z" fill="#111F24"/>
<path d="M136.793 188.09H119.694V205.19H136.793V188.09Z" fill="#111F24"/>
<path d="M85.4957 205.19H68.3965V239.388H85.4957V205.19Z" fill="#111F24"/>
<path d="M102.595 239.388H85.4957V256.487H102.595V239.388Z" fill="#111F24"/>
<path d="M256.487 239.388H239.388V256.487H256.487V239.388Z" fill="#111F24"/>
<path d="M102.595 256.487V273.586H239.388V256.487H102.595Z" fill="#111F24"/>
<path d="M368.014 239.976V51.0105H442.567C456.899 51.0105 469.109 53.7478 479.197 59.2224C489.285 64.6354 496.974 72.1707 502.264 81.8281C507.616 91.4239 510.291 102.496 510.291 115.045C510.291 127.593 507.585 138.665 502.172 148.261C496.759 157.857 488.916 165.331 478.643 170.682C468.432 176.034 456.069 178.71 441.552 178.71H394.034V146.693H435.093C442.782 146.693 449.118 145.37 454.1 142.725C459.144 140.018 462.896 136.297 465.357 131.561C467.879 126.763 469.14 121.257 469.14 115.045C469.14 108.77 467.879 103.296 465.357 98.6208C462.896 93.8844 459.144 90.2245 454.1 87.641C449.056 84.9959 442.659 83.6734 434.908 83.6734H407.966V239.976H368.014Z" fill="#111F24"/>
<path d="M559.12 242.651C550.077 242.651 542.019 241.083 534.945 237.946C527.872 234.747 522.274 230.041 518.153 223.829C514.093 217.554 512.063 209.742 512.063 200.393C512.063 192.519 513.509 185.906 516.4 180.555C519.291 175.203 523.227 170.898 528.21 167.637C533.192 164.377 538.851 161.917 545.187 160.256C551.584 158.595 558.289 157.426 565.302 156.75C573.544 155.889 580.188 155.089 585.232 154.351C590.276 153.551 593.936 152.382 596.211 150.845C598.487 149.307 599.625 147.031 599.625 144.017V143.463C599.625 137.62 597.78 133.098 594.089 129.9C590.46 126.701 585.293 125.102 578.588 125.102C571.514 125.102 565.886 126.67 561.703 129.807C557.52 132.883 554.752 136.758 553.399 141.433L517.045 138.481C518.891 129.869 522.52 122.426 527.933 116.152C533.346 109.816 540.328 104.957 548.878 101.573C557.49 98.1288 567.455 96.4064 578.773 96.4064C586.646 96.4064 594.182 97.3291 601.378 99.1745C608.637 101.02 615.065 103.88 620.663 107.755C626.322 111.631 630.781 116.613 634.041 122.703C637.302 128.731 638.932 135.959 638.932 144.386V239.976H601.655V220.322H600.548C598.272 224.751 595.227 228.657 591.414 232.04C587.6 235.362 583.017 237.976 577.666 239.883C572.314 241.729 566.132 242.651 559.12 242.651ZM570.376 215.525C576.159 215.525 581.264 214.387 585.693 212.111C590.122 209.773 593.597 206.636 596.119 202.699C598.641 198.762 599.902 194.303 599.902 189.32V174.281C598.672 175.08 596.98 175.818 594.827 176.495C592.736 177.11 590.368 177.695 587.723 178.248C585.078 178.74 582.433 179.202 579.788 179.632C577.143 180.001 574.744 180.34 572.591 180.647C567.977 181.324 563.948 182.4 560.504 183.877C557.059 185.353 554.383 187.352 552.476 189.874C550.57 192.334 549.616 195.41 549.616 199.101C549.616 204.452 551.554 208.543 555.429 211.372C559.366 214.14 564.348 215.525 570.376 215.525Z" fill="#111F24"/>
<path d="M656.435 293.122V98.2518H695.187V122.057H696.941C698.663 118.243 701.154 114.368 704.414 110.431C707.736 106.433 712.042 103.111 717.332 100.466C722.683 97.7597 729.327 96.4064 737.262 96.4064C747.596 96.4064 757.13 99.113 765.865 104.526C774.599 109.878 781.581 117.966 786.81 128.793C792.038 139.557 794.652 153.059 794.652 169.298C794.652 185.107 792.1 198.455 786.994 209.343C781.95 220.169 775.061 228.381 766.326 233.978C757.653 239.514 747.934 242.282 737.169 242.282C729.542 242.282 723.052 241.021 717.701 238.499C712.411 235.977 708.074 232.809 704.691 228.996C701.308 225.12 698.724 221.214 696.941 217.278H695.741V293.122H656.435ZM694.911 169.114C694.911 177.541 696.079 184.892 698.417 191.166C700.754 197.44 704.137 202.33 708.566 205.836C712.995 209.281 718.377 211.003 724.713 211.003C731.11 211.003 736.523 209.25 740.952 205.744C745.381 202.176 748.734 197.255 751.01 190.981C753.347 184.645 754.516 177.356 754.516 169.114C754.516 160.933 753.378 153.736 751.102 147.523C748.826 141.31 745.474 136.451 741.045 132.945C736.616 129.438 731.172 127.685 724.713 127.685C718.316 127.685 712.903 129.377 708.474 132.76C704.107 136.143 700.754 140.941 698.417 147.154C696.079 153.367 694.911 160.687 694.911 169.114Z" fill="#111F24"/>
<path d="M848.279 242.651C839.236 242.651 831.178 241.083 824.104 237.946C817.03 234.747 811.433 230.041 807.312 223.829C803.252 217.554 801.222 209.742 801.222 200.393C801.222 192.519 802.667 185.906 805.559 180.555C808.45 175.203 812.386 170.898 817.369 167.637C822.351 164.377 828.01 161.917 834.346 160.256C840.743 158.595 847.448 157.426 854.461 156.75C862.703 155.889 869.346 155.089 874.391 154.351C879.435 153.551 883.094 152.382 885.37 150.845C887.646 149.307 888.784 147.031 888.784 144.017V143.463C888.784 137.62 886.939 133.098 883.248 129.9C879.619 126.701 874.452 125.102 867.747 125.102C860.673 125.102 855.045 126.67 850.862 129.807C846.679 132.883 843.911 136.758 842.558 141.433L806.204 138.481C808.05 129.869 811.679 122.426 817.092 116.152C822.505 109.816 829.487 104.957 838.037 101.573C846.649 98.1288 856.613 96.4064 867.932 96.4064C875.805 96.4064 883.341 97.3291 890.537 99.1745C897.796 101.02 904.224 103.88 909.821 107.755C915.481 111.631 919.94 116.613 923.2 122.703C926.46 128.731 928.091 135.959 928.091 144.386V239.976H890.814V220.322H889.707C887.431 224.751 884.386 228.657 880.572 232.04C876.759 235.362 872.176 237.976 866.824 239.883C861.473 241.729 855.291 242.651 848.279 242.651ZM859.535 215.525C865.317 215.525 870.423 214.387 874.852 212.111C879.281 209.773 882.756 206.636 885.278 202.699C887.8 198.762 889.061 194.303 889.061 189.32V174.281C887.831 175.08 886.139 175.818 883.986 176.495C881.895 177.11 879.527 177.695 876.882 178.248C874.237 178.74 871.592 179.202 868.947 179.632C866.302 180.001 863.903 180.34 861.75 180.647C857.136 181.324 853.107 182.4 849.663 183.877C846.218 185.353 843.542 187.352 841.635 189.874C839.728 192.334 838.775 195.41 838.775 199.101C838.775 204.452 840.713 208.543 844.588 211.372C848.525 214.14 853.507 215.525 859.535 215.525Z" fill="#111F24"/>
<path d="M946.332 239.976V51.0105H1021.99C1035.89 51.0105 1047.49 53.0712 1056.78 57.1925C1066.07 61.3138 1073.05 67.0344 1077.72 74.3543C1082.4 81.6128 1084.73 89.9784 1084.73 99.4513C1084.73 106.833 1083.26 113.322 1080.31 118.92C1077.35 124.456 1073.29 129.008 1068.13 132.576C1063.02 136.082 1057.18 138.573 1050.59 140.049V141.895C1057.79 142.202 1064.53 144.232 1070.8 147.984C1077.14 151.737 1082.27 156.996 1086.21 163.762C1090.15 170.467 1092.12 178.463 1092.12 187.752C1092.12 197.778 1089.62 206.728 1084.64 214.602C1079.72 222.414 1072.43 228.596 1062.77 233.148C1053.12 237.7 1041.21 239.976 1027.07 239.976H946.332ZM986.284 207.313H1018.85C1029.99 207.313 1038.11 205.19 1043.21 200.946C1048.32 196.64 1050.87 190.92 1050.87 183.784C1050.87 178.556 1049.61 173.942 1047.09 169.944C1044.57 165.946 1040.97 162.809 1036.29 160.533C1031.68 158.257 1026.17 157.119 1019.78 157.119H986.284V207.313ZM986.284 130.084H1015.9C1021.38 130.084 1026.24 129.131 1030.48 127.224C1034.79 125.256 1038.17 122.488 1040.63 118.92C1043.15 115.352 1044.41 111.077 1044.41 106.095C1044.41 99.2667 1041.98 93.7614 1037.12 89.5786C1032.33 85.3958 1025.5 83.3044 1016.64 83.3044H986.284V130.084Z" fill="#111F24"/>
<path d="M1168.97 242.744C1154.39 242.744 1141.84 239.791 1131.32 233.886C1120.87 227.919 1112.81 219.492 1107.15 208.604C1101.49 197.655 1098.66 184.707 1098.66 169.76C1098.66 155.181 1101.49 142.387 1107.15 131.376C1112.81 120.365 1120.78 111.784 1131.05 105.633C1141.38 99.482 1153.5 96.4064 1167.4 96.4064C1176.75 96.4064 1185.46 97.9135 1193.51 100.928C1201.63 103.88 1208.71 108.34 1214.74 114.306C1220.82 120.273 1225.56 127.778 1228.94 136.82C1232.33 145.801 1234.02 156.319 1234.02 168.376V179.171H1114.35V154.812H1197.02C1197.02 149.153 1195.79 144.14 1193.33 139.772C1190.87 135.405 1187.45 131.991 1183.09 129.531C1178.78 127.009 1173.77 125.748 1168.05 125.748C1162.08 125.748 1156.79 127.132 1152.18 129.9C1147.63 132.606 1144.06 136.266 1141.47 140.88C1138.89 145.432 1137.57 150.506 1137.51 156.104V179.263C1137.51 186.276 1138.8 192.334 1141.38 197.44C1144.03 202.545 1147.75 206.482 1152.55 209.25C1157.34 212.018 1163.03 213.402 1169.62 213.402C1173.98 213.402 1177.98 212.787 1181.61 211.557C1185.24 210.327 1188.35 208.481 1190.93 206.021C1193.51 203.56 1195.48 200.546 1196.84 196.979L1233.19 199.378C1231.34 208.112 1227.56 215.74 1221.84 222.26C1216.18 228.719 1208.86 233.763 1199.88 237.392C1190.96 240.96 1180.66 242.744 1168.97 242.744Z" fill="#111F24"/>
<path d="M1322.06 98.2518V127.778H1236.71V98.2518H1322.06ZM1256.09 64.2971H1295.4V196.425C1295.4 200.054 1295.95 202.884 1297.06 204.914C1298.16 206.882 1299.7 208.266 1301.67 209.066C1303.7 209.865 1306.04 210.265 1308.68 210.265C1310.53 210.265 1312.37 210.111 1314.22 209.804C1316.06 209.435 1317.48 209.158 1318.46 208.973L1324.64 238.222C1322.68 238.838 1319.91 239.545 1316.34 240.345C1312.77 241.206 1308.44 241.729 1303.33 241.913C1293.86 242.282 1285.55 241.021 1278.42 238.13C1271.34 235.239 1265.84 230.749 1261.9 224.659C1257.97 218.569 1256.03 210.88 1256.09 201.592V64.2971Z" fill="#111F24"/>
<path d="M1385.21 90.641H1355.63V83.2468H1385.21V90.641ZM1355.63 98.0352H1348.24V90.641H1355.63V98.0352ZM1385.21 98.0352V90.641H1392.61V98.0352H1385.21ZM1348.24 98.0352V127.612H1340.85V98.0352H1348.24ZM1355.63 127.612V98.0352H1377.82V105.429H1363.03V112.824H1377.82V120.218H1363.03V127.612H1355.63ZM1400 98.0352V127.612H1392.61V98.0352H1400ZM1377.82 112.824V105.429H1385.21V112.824H1377.82ZM1377.82 127.612V120.218H1385.21V127.612H1377.82ZM1355.63 127.612V135.006H1348.24V127.612H1355.63ZM1385.21 127.612H1392.61V135.006H1385.21V127.612ZM1355.63 135.006H1385.21V142.401H1355.63V135.006Z" fill="#111F24"/>
</svg>
