<svg width="32" height="32" viewBox="0 0 32 32" fill="none" xmlns="http://www.w3.org/2000/svg">
<path d="M12 29.3337L12 30.667L10.6667 30.667L10.6667 29.3337L9.33334 29.3337L9.33334 12.0003L10.6667 12.0003L10.6667 10.667L12 10.667L12 12.0003L13.3333 12.0003L13.3333 29.3337L12 29.3337Z" fill="#D8D8D8"/>
<path d="M29.3333 30.667L28 30.667L28 29.3337L26.6667 29.3337L26.6667 12.0003L28 12.0003L28 10.667L29.3333 10.667L29.3333 12.0003L30.6667 12.0003L30.6667 29.3337L29.3333 29.3337L29.3333 30.667Z" fill="#D8D8D8"/>
<path d="M21.3333 29.333L21.3333 30.6663L20 30.6663L20 29.333L18.6667 29.333L18.6667 2.66634L20 2.66634L20 1.33301L21.3333 1.33301L21.3333 2.66634L22.6667 2.66634L22.6667 29.333L21.3333 29.333Z" fill="#D8D8D8"/>
<path d="M4.00001 29.333L4.00001 30.6663L2.66668 30.6663L2.66668 29.333L1.33334 29.333L1.33334 2.66634L2.66668 2.66634L2.66668 1.33301L4.00001 1.33301L4.00001 2.66634L5.33334 2.66634L5.33334 29.333L4.00001 29.333Z" fill="#D8D8D8"/>
</svg>
