<svg width="48" height="48" viewBox="0 0 48 48" fill="none" xmlns="http://www.w3.org/2000/svg">
<g clip-path="url(#clip0_609_10562)">
<g clip-path="url(#clip1_609_10562)">
<path d="M45.4738 0H42.9477H40.4215V2.52616H37.8954H35.3692V5.05232H32.8416H30.3154V7.57848H27.7892H25.2631V10.1046H22.7369V12.6323H20.2108H17.6846H15.1584V15.1584H12.6323H10.1046V17.6846H7.57848H5.05232H2.52616V20.2108H0V22.7369H2.52616V25.2631H5.05232H7.57848H10.1046V27.7892H12.6323H15.1584H17.6846V25.2631H20.2108V22.7369H22.7369V20.2108H25.2631H27.7892V17.6846H30.3154V15.1584H32.8416V12.6323H35.3692V10.1046H37.8954H40.4215V12.6323H37.8954V15.1584H35.3692V17.6846H32.8416V20.2108H30.3154V22.7369H27.7892V25.2631H25.2631H22.7369V27.7892V30.3154H20.2108V32.8416V35.3692H17.6846V37.8954V40.4215V42.9477H20.2108V40.4215H22.7369V37.8954H25.2631V35.3692H27.7892V37.8954H30.3154V40.4215H32.8416V42.9477H35.3692V45.4738H37.8954V48H40.4215V45.4738V42.9477H42.9477V40.4215V37.8954V35.3692V32.8416H45.4738V30.3154V27.7892V25.2631V22.7369H48V20.2108V17.6846V15.1584V12.6323V10.1046V7.57848V5.05232V2.52616V0H45.4738Z" fill="#D8D8D8"/>
</g>
</g>
<defs>
<clipPath id="clip0_609_10562">
<rect width="48" height="48" fill="white"/>
</clipPath>
<clipPath id="clip1_609_10562">
<rect width="48" height="48" fill="white"/>
</clipPath>
</defs>
</svg>
