<svg width="32" height="32" viewBox="0 0 32 32" fill="none" xmlns="http://www.w3.org/2000/svg">
<path d="M30.6673 6.66669V20H29.334V18.6667H28.0007V17.3334H26.6673V16H24.0007V17.3334H22.6673V18.6667H21.334V20H20.0007V21.3334H18.6673V22.6667H17.334V24H16.0007V25.3334H13.334V24H12.0007V22.6667H10.6673V21.3334H9.33398V20H6.66732V21.3334H5.33398V22.6667H1.33398V18.6667H2.66732V17.3334H4.00065V16H5.33398V14.6667H6.66732V13.3334H9.33398V14.6667H10.6673V16H12.0007V17.3334H13.334V18.6667H16.0007V17.3334H17.334V16H18.6673V14.6667H20.0007V13.3334H21.334V10.6667H20.0007V9.33335H18.6673V8.00002H17.334V6.66669H30.6673Z" fill="#D8D8D8"/>
</svg>
